<svg width="393" height="464" viewBox="0 0 393 464" fill="none" xmlns="http://www.w3.org/2000/svg">
<g style="mix-blend-mode:multiply">
<circle cx="199" cy="285" r="116" fill="url(#paint0_linear_680_38)"/>
</g>
<g style="mix-blend-mode:luminosity">
<path d="M147.638 275.611L132.265 290.977H154H161.333V350V359H170.333H192.111H201.111V350V326.349H210.333V350V359H219.333H237.781H246.781V350V290.977H252H273.735L258.362 275.611L209.362 226.635L203 220.275L196.638 226.635L147.638 275.611Z" stroke="#34B350" stroke-width="18"/>
</g>
<g style="mix-blend-mode:screen" filter="url(#filter0_f_680_38)">
<path d="M42 312.483L181.023 296.872L356 100V479H42V312.483Z" fill="url(#paint1_linear_680_38)"/>
</g>
<path d="M332.519 344.683C334.977 342.358 334.73 338.664 331.971 336.54C329.212 334.415 323.732 335.166 320.589 336.963C322.521 333.026 320.557 328.206 316.025 325.764C311.492 323.323 304.795 323.476 300.468 326.118C296.14 328.766 292.65 334.944 294.898 338.786C291.676 336.249 286.048 335.684 282.058 337.502C278.067 339.32 276.114 343.331 277.609 346.655C293.755 346.227 316.367 345.111 332.519 344.683Z" fill="url(#paint2_linear_680_38)"/>
<path d="M336.629 427.6C333.802 425.544 328.796 425.026 325.6 426.775C327.937 424.392 327.432 420.782 324.479 418.785C321.525 416.787 316.413 416.829 313.276 418.674C315.971 416.238 314.934 412.142 311.222 410.546C307.511 408.955 301.709 410.319 300.041 413.194C299.435 410.134 298.814 407.021 297.024 404.21C295.234 401.398 292.08 398.888 287.958 398.058C281.604 396.785 285.516 400.008 282.673 404.31C279.83 408.612 278.951 414.362 280.061 419.06C278.893 416.856 275.318 415.477 272.133 416.005C268.948 416.534 266.563 418.901 266.837 421.253C263.304 419.324 254.902 421.411 252.759 424.217C250.622 427.024 252.665 431.035 256.808 432.166C254.439 431.817 250.817 433.82 250.506 435.553C250.196 437.286 252.222 439.051 254.639 439.147L335.75 438.766C338.188 436.467 339.451 429.65 336.624 427.594L336.629 427.6Z" fill="#94CA47"/>
<path d="M66.4839 425.364C69.1161 422.214 73.3225 421.686 76.576 423.62C77.7711 416.644 81.1036 410.022 86.1049 407.058C91.1063 404.093 97.9186 404.859 101.088 410.699C100.714 404.241 104.268 397.91 109.006 395.891C113.744 393.873 119.251 395.981 122.715 400.642C126.179 405.303 128.221 412.554 127.5 418.964C131.907 416.306 137.535 417.553 141.014 421.96C144.494 426.368 145.689 431.938 143.747 437.725H64.0042C62.7829 433.354 63.8568 428.513 66.4891 425.364H66.4839Z" fill="#94CA47"/>
<path d="M424 459.5C424 443.769 349.375 431 192.421 431C35.4666 431 -26 443.769 -26 459.5C-26 475.23 35.4666 488 192.421 488C349.375 488 424 475.23 424 459.5Z" fill="#31470E"/>
<path d="M344 437.117C344 434.422 295.245 432.234 192.701 432.234C90.1581 432.234 50 434.422 50 437.117C50 439.812 90.1581 442 192.701 442C295.245 442 344 439.812 344 437.117Z" fill="#5E7140"/>
<path d="M309.474 421.67V436.884L313.896 437.164L312.632 421.67H309.474Z" fill="#42630F"/>
<path d="M311.059 423.916C324.631 423.361 313.08 381.285 307.442 366.112C299.177 380.555 294.049 424.613 311.059 423.916Z" fill="#DEFEA3"/>
<path d="M300.224 409.452C301.345 418.002 304.609 424.18 311.059 423.916C314.512 423.773 316.334 420.935 317.044 416.544C315.37 416.486 313.67 416.322 311.938 416.036C308.11 414.757 303.541 412.707 300.219 409.457L300.224 409.452Z" fill="#C1EB74"/>
<path d="M86.209 421.67V436.884L90.626 437.164L89.3677 421.67H86.209Z" fill="#42630F"/>
<path d="M87.795 423.916C101.367 423.361 89.8166 381.285 84.1782 366.112C75.9129 380.555 70.7852 424.613 87.795 423.916Z" fill="#DEFEA3"/>
<path d="M76.8965 408.966C77.9547 417.77 81.2187 424.186 87.7941 423.916C91.6004 423.758 93.4272 420.338 93.9695 415.165C86.7044 416.634 81.2134 413.796 76.8965 408.966Z" fill="#C1EB74"/>
<path d="M137.55 366.271C139.05 364.623 138.903 361.991 137.218 360.479C135.533 358.968 132.185 359.502 130.269 360.781C131.448 357.985 130.248 354.555 127.484 352.822C124.715 351.083 120.629 351.194 117.986 353.076C115.344 354.957 113.212 359.349 114.586 362.075C112.617 360.273 109.184 359.872 106.747 361.161C104.309 362.451 103.119 365.304 104.03 367.667C113.891 367.365 127.7 366.567 137.555 366.266L137.55 366.271Z" fill="url(#paint3_linear_680_38)"/>
<path d="M105.604 341.977C107.105 340.329 106.957 337.697 105.273 336.185C103.588 334.674 100.24 335.208 98.3234 336.487C99.5027 333.691 98.3024 330.261 95.5385 328.528C92.7693 326.789 88.684 326.9 86.0412 328.782C83.3984 330.663 81.2662 335.055 82.6403 337.781C80.6713 335.979 77.2388 335.578 74.8013 336.867C72.3638 338.157 71.174 341.01 72.0848 343.373C81.9453 343.071 95.7543 342.273 105.61 341.972L105.604 341.977Z" fill="url(#paint4_linear_680_38)"/>
<path d="M189.332 333.76H270.485L270.817 436.884H193.059L189.332 333.76Z" fill="#31470E"/>
<path d="M281.267 323.619H228.653V436.884H281.267V323.619Z" fill="#E1FBA8"/>
<path d="M281.267 324.026H228.601V327.297H281.267V324.026Z" fill="#A0DB28"/>
<path opacity="0.5" d="M233.023 376.846C233.718 376.872 246.7 324 246.7 324H278.535L282.899 376.846H233.018H233.023Z" fill="#96E96F"/>
<path d="M134.217 323.619L136.896 376.867H211.948L213.422 323.619H134.217Z" fill="#F6FFE2"/>
<path d="M281.267 357.277V355.585H274.654V323.619H272.97V355.585H239.176V323.619H237.492V355.585H228.647L222.751 357.277H237.487V401.985H228.595L228.695 403.676H237.487V436.884H239.171V403.676H272.964V436.884H274.649V403.676H281.246L281.277 401.985H274.649V357.277H281.261H281.267ZM272.97 401.985H239.176V357.277H272.97V401.985Z" fill="#31470E"/>
<path d="M294.739 436.884H221.914L222.757 389.55H104.735L104.209 376.867H294.739V436.884Z" fill="white"/>
<path d="M112.732 389.55V436.884H221.914L222.757 389.55H112.732Z" fill="#F6FFE2"/>
<path d="M177.992 410.678H129.995V436.879H177.992V410.678Z" fill="#829753"/>
<path d="M129.995 410.678H177.992V412.369L129.995 412.934V410.678Z" fill="#31470E"/>
<path d="M175.044 416.016H132.101V417.094H175.044V416.016Z" fill="#31470E"/>
<path d="M175.044 419.397H132.101V420.476H175.044V419.397Z" fill="#31470E"/>
<path d="M175.044 422.774H132.101V423.852H175.044V422.774Z" fill="#31470E"/>
<path d="M175.044 426.157H132.101V427.235H175.044V426.157Z" fill="#31470E"/>
<path d="M175.044 429.539H132.101V430.617H175.044V429.539Z" fill="#31470E"/>
<path d="M107.926 436.885V432.245H221.999L221.914 436.885H107.926Z" fill="#31470E"/>
<path d="M129.573 323.999H217.702V319.391L129.573 319V323.999Z" fill="#31470E"/>
<path d="M226.969 323.999H283.795V319.391L226.969 319V323.999Z" fill="#31470E"/>
<path d="M203.694 335.24L142.625 335.589L144.531 376.83L203.941 376.867L203.694 335.24Z" fill="#E1FBA8"/>
<path d="M142.625 335.589L203.694 335.24V341.159L142.888 341.317L142.625 335.589Z" fill="#A0DB28"/>
<path opacity="0.5" d="M175.923 335.488L178.834 376.846H184.804L183.872 335.335L175.923 335.488Z" fill="#96E96F"/>
<path d="M188.568 396.309L189.858 426.902H198.145L198.976 396.309H188.568Z" fill="#A0DB28"/>
<path d="M191.138 426.902L190.274 398.317H198.924L198.145 426.902H191.138Z" fill="#E1FBA8"/>
<path d="M205.699 396.309L206.989 426.902H215.275L216.107 396.309H205.699Z" fill="#A0DB28"/>
<path d="M208.269 426.902L207.405 398.317H216.055L215.276 426.902H208.269Z" fill="#E1FBA8"/>
<path d="M289.17 414.895H274.387V436.879H289.17V414.895Z" fill="#31470E"/>
<path d="M276.818 436.885L277.155 418.077H288.843V436.885H276.818Z" fill="#829753"/>
<path d="M279.003 424.418H278.082V428.128H279.003V424.418Z" fill="#31470E"/>
<path d="M228.653 437.265V415.286H264.205L264.337 437.265H228.653Z" fill="#A0DB28"/>
<path d="M234.123 436.885H264.336L264.236 419.979H234.123V436.885Z" fill="#E1FBA8"/>
<path opacity="0.5" d="M241.388 435.193L247.589 420.824H252.012L247.063 435.193H241.388Z" fill="#96E96F"/>
<path opacity="0.5" d="M250.891 435.193L254.818 420.824H257.066L253.976 435.193H250.891Z" fill="#96E96F"/>
<path d="M264.336 436.884L263.099 373.49H278.534L277.703 436.879L264.336 436.884Z" fill="#D8D9D9"/>
<path d="M143.988 365.035L144.104 367.571H203.941V365.035H143.988Z" fill="#31470E"/>
<path d="M150.905 365.415L151.326 377.247H153.148V365.415H150.905Z" fill="#31470E"/>
<path d="M171.116 365.415L171.537 377.247H173.359V365.415H171.116Z" fill="#31470E"/>
<path d="M159.098 365.415L159.519 377.247H161.34V365.415H159.098Z" fill="#31470E"/>
<path d="M179.308 365.415L179.729 377.247H181.55V365.415H179.308Z" fill="#31470E"/>
<path d="M188.773 365.415L189.195 377.247H191.016V365.415H188.773Z" fill="#31470E"/>
<path d="M196.092 365.415L196.513 377.247H198.335V365.415H196.092Z" fill="#31470E"/>
<path d="M222.757 389.55H112.732V392.673H222.757V389.55Z" fill="#B7B7B7"/>
<path d="M349.262 228.644C354.687 223.505 354.141 215.341 348.054 210.646C341.967 205.951 329.875 207.61 322.94 211.581C327.203 202.88 322.871 192.228 312.869 186.832C302.868 181.437 288.092 181.775 278.544 187.615C268.995 193.466 261.294 207.119 266.254 215.61C259.145 210.004 246.727 208.754 237.922 212.772C229.117 216.789 224.808 225.654 228.107 233C263.733 232.054 313.624 229.59 349.262 228.644Z" fill="url(#paint5_linear_680_38)"/>
<defs>
<filter id="filter0_f_680_38" x="-58" y="0" width="514" height="579" filterUnits="userSpaceOnUse" color-interpolation-filters="sRGB">
<feFlood flood-opacity="0" result="BackgroundImageFix"/>
<feBlend mode="normal" in="SourceGraphic" in2="BackgroundImageFix" result="shape"/>
<feGaussianBlur stdDeviation="50" result="effect1_foregroundBlur_680_38"/>
</filter>
<linearGradient id="paint0_linear_680_38" x1="199" y1="275" x2="190.5" y2="409.5" gradientUnits="userSpaceOnUse">
<stop stop-color="#8AC03F"/>
<stop offset="1" stop-color="#1DC4FF"/>
<stop offset="1" stop-color="#1989B0"/>
</linearGradient>
<linearGradient id="paint1_linear_680_38" x1="199" y1="312.483" x2="199" y2="479" gradientUnits="userSpaceOnUse">
<stop stop-color="#8DC541"/>
<stop offset="1" stop-color="#366170"/>
</linearGradient>
<linearGradient id="paint2_linear_680_38" x1="305.659" y1="346.649" x2="305.659" y2="324.026" gradientUnits="userSpaceOnUse">
<stop stop-color="white" stop-opacity="0"/>
<stop offset="1" stop-color="white"/>
</linearGradient>
<linearGradient id="paint3_linear_680_38" x1="121.15" y1="367.672" x2="121.15" y2="351.591" gradientUnits="userSpaceOnUse">
<stop stop-color="white" stop-opacity="0"/>
<stop offset="1" stop-color="white"/>
</linearGradient>
<linearGradient id="paint4_linear_680_38" x1="89.2052" y1="343.378" x2="89.2052" y2="327.297" gradientUnits="userSpaceOnUse">
<stop stop-color="white" stop-opacity="0"/>
<stop offset="1" stop-color="white"/>
</linearGradient>
<linearGradient id="paint5_linear_680_38" x1="289.997" y1="232.988" x2="289.997" y2="182.99" gradientUnits="userSpaceOnUse">
<stop stop-color="white" stop-opacity="0"/>
<stop offset="1" stop-color="white"/>
</linearGradient>
</defs>
</svg>
